<svg width="75px" height="75px" viewBox="0 0 75 75" version="1.1" xmlns="http://www.w3.org/2000/svg" xmlns:xlink="http://www.w3.org/1999/xlink">
    <g id="Page-1" stroke="none" stroke-width="1" fill="none" fill-rule="evenodd">
        <g id="Group" fill-rule="nonzero">
            <rect id="Rectangle" fill="#FFFFFF" x="0" y="0" width="75" height="75"></rect>
            <path d="M46.5833247,35.1661285 L28.422113,35.1661285 L31.8771849,31.7110565 C32.0396883,31.5485531 32.0396883,31.2843809 31.8771849,31.1218775 C31.7146816,30.9593742 31.4505094,30.9593742 31.288006,31.1218775 L27.1220859,35.288631 C27.0829184,35.3269651 27.0520844,35.3736328 27.0312507,35.4236338 C26.9895831,35.526136 26.9895831,35.640305 27.0312507,35.7428071 C27.0520844,35.7936415 27.0829184,35.8394758 27.1220859,35.87781 L31.288006,40.0445634 C31.3696744,40.1253984 31.4763433,40.1662326 31.5830121,40.1662326 C31.689681,40.1662326 31.7963499,40.1253984 31.8780183,40.0445634 C32.0405217,39.88206 32.0405217,39.6178879 31.8780183,39.4553845 L28.422113,35.9994792 L46.5833247,35.9994792 C46.8133294,35.9994792 47,35.8128086 47,35.5828038 C47,35.352799 46.8133294,35.1661285 46.5833247,35.1661285 Z" id="Shape" fill="#E9554C"></path>
        </g>
    </g>
</svg>