<svg width="20px" height="10px" viewBox="0 0 20 10" version="1.1" xmlns="http://www.w3.org/2000/svg" xmlns:xlink="http://www.w3.org/1999/xlink">
    <g id="Symbols" stroke="none" stroke-width="1" fill="none" fill-rule="evenodd">
        <g id="Paginator" transform="translate(-145.000000, -20.000000)" fill="#E9554C" fill-rule="nonzero">
            <path d="M164.583325,24.1661285 L146.422113,24.1661285 L149.877185,20.7110565 C150.039688,20.5485531 150.039688,20.2843809 149.877185,20.1218775 C149.714682,19.9593742 149.450509,19.9593742 149.288006,20.1218775 L145.122086,24.288631 C145.082918,24.3269651 145.052084,24.3736328 145.031251,24.4236338 C144.989583,24.526136 144.989583,24.640305 145.031251,24.7428071 C145.052084,24.7936415 145.082918,24.8394758 145.122086,24.87781 L149.288006,29.0445634 C149.369674,29.1253984 149.476343,29.1662326 149.583012,29.1662326 C149.689681,29.1662326 149.79635,29.1253984 149.878018,29.0445634 C150.040522,28.88206 150.040522,28.6178879 149.878018,28.4553845 L146.422113,24.9994792 L164.583325,24.9994792 C164.813329,24.9994792 165,24.8128086 165,24.5828038 C165,24.352799 164.813329,24.1661285 164.583325,24.1661285 Z" id="Shape" transform="translate(155.000000, 24.583116) scale(-1, 1) translate(-155.000000, -24.583116) "></path>
        </g>
    </g>
</svg>