<svg width="217" height="84" viewBox="0 0 217 84" fill="none" xmlns="http://www.w3.org/2000/svg">
<path d="M3.48 75.36C6.68 72.64 8.28 68.8267 8.28 63.92V30.88H15.8V64.24C15.8 68.0267 15.16 71.2 13.88 73.76C12.6533 76.32 10.68 78.4 7.96 80L3.48 75.36ZM7.72 18.96C7.72 17.7867 8.17333 16.8 9.08 16C9.98667 15.2 11.0267 14.8 12.2 14.8C13.3733 14.8 14.3867 15.2 15.24 16C16.1467 16.8 16.6 17.7867 16.6 18.96C16.6 20.1333 16.1467 21.12 15.24 21.92C14.3867 22.72 13.3733 23.12 12.2 23.12C11.0267 23.12 9.98667 22.72 9.08 21.92C8.17333 21.12 7.72 20.1333 7.72 18.96ZM58.2613 30.88V64H50.8213V58.56C49.6479 60.1067 47.9413 61.5467 45.7013 62.88C43.4613 64.16 40.9279 64.8 38.1013 64.8C34.9546 64.8 32.1013 64.1333 29.5412 62.8C27.0346 61.4133 25.0346 59.4133 23.5413 56.8C22.1013 54.1867 21.3813 51.0667 21.3813 47.44C21.3813 43.8133 22.1279 40.6667 23.6213 38C25.1679 35.28 27.2213 33.2 29.7813 31.76C32.3946 30.2667 35.2746 29.52 38.4213 29.52C41.2479 29.52 43.7013 30.1333 45.7813 31.36C47.8613 32.5867 49.5413 34.1867 50.8213 36.16L51.3813 30.88H58.2613ZM40.1013 58.64C42.8213 58.64 45.1413 57.8933 47.0613 56.4C49.0346 54.8533 50.2879 52.7733 50.8213 50.16V43.6C50.1813 41.2533 48.8479 39.36 46.8213 37.92C44.7946 36.4267 42.4746 35.68 39.8613 35.68C37.8879 35.68 36.0479 36.16 34.3413 37.12C32.6879 38.08 31.3546 39.44 30.3413 41.2C29.3813 42.9067 28.9013 44.8533 28.9013 47.04C28.9013 49.1733 29.4079 51.12 30.4213 52.88C31.4346 54.64 32.7946 56.0533 34.5013 57.12C36.2079 58.1333 38.0746 58.64 40.1013 58.64ZM113.214 30.88L97.9344 66L87.2944 43.28L77.6144 66L62.2544 30.88H69.6144L78.4944 50.96L84.6544 36.56L82.0144 30.88H88.4944L97.4544 51.44L105.854 30.88H113.214ZM150.886 30.88V64H143.446V58.56C142.273 60.1067 140.566 61.5467 138.326 62.88C136.086 64.16 133.553 64.8 130.726 64.8C127.58 64.8 124.726 64.1333 122.166 62.8C119.66 61.4133 117.66 59.4133 116.166 56.8C114.726 54.1867 114.006 51.0667 114.006 47.44C114.006 43.8133 114.753 40.6667 116.246 38C117.793 35.28 119.846 33.2 122.406 31.76C125.02 30.2667 127.9 29.52 131.046 29.52C133.873 29.52 136.326 30.1333 138.406 31.36C140.486 32.5867 142.166 34.1867 143.446 36.16L144.006 30.88H150.886ZM132.726 58.64C135.446 58.64 137.766 57.8933 139.686 56.4C141.66 54.8533 142.913 52.7733 143.446 50.16V43.6C142.806 41.2533 141.473 39.36 139.446 37.92C137.42 36.4267 135.1 35.68 132.486 35.68C130.513 35.68 128.673 36.16 126.966 37.12C125.313 38.08 123.98 39.44 122.966 41.2C122.006 42.9067 121.526 44.8533 121.526 47.04C121.526 49.1733 122.033 51.12 123.046 52.88C124.06 54.64 125.42 56.0533 127.126 57.12C128.833 58.1333 130.7 58.64 132.726 58.64ZM167.039 38.72C167.893 36.9067 169.093 35.3067 170.639 33.92C172.239 32.5333 173.919 31.4667 175.679 30.72C177.439 29.9733 178.986 29.5733 180.319 29.52L179.999 36.96C177.599 36.8533 175.413 37.3333 173.439 38.4C171.519 39.4667 169.999 40.96 168.879 42.88C167.813 44.7467 167.279 46.7467 167.279 48.88V64H159.839V30.88H166.479L167.039 38.72ZM200.031 58.4C202.805 58.4 205.498 57.44 208.111 55.52L211.551 61.04C209.791 62.2133 207.871 63.1467 205.791 63.84C203.765 64.48 201.791 64.8 199.871 64.8C196.191 64.8 192.965 64.0533 190.191 62.56C187.471 61.0133 185.365 58.9067 183.871 56.24C182.378 53.5733 181.631 50.56 181.631 47.2C181.631 43.9467 182.431 40.9867 184.031 38.32C185.685 35.6 187.925 33.4667 190.751 31.92C193.578 30.32 196.671 29.52 200.031 29.52C204.351 29.52 207.951 30.8 210.831 33.36C213.765 35.8667 215.765 39.3867 216.831 43.92L190.591 53.12C191.551 54.7733 192.831 56.08 194.431 57.04C196.085 57.9467 197.951 58.4 200.031 58.4ZM199.471 35.44C196.431 35.44 193.925 36.5067 191.951 38.64C189.978 40.7733 188.991 43.4933 188.991 46.8C188.991 47.6 189.018 48.2133 189.071 48.64L208.351 41.52C207.551 39.7067 206.405 38.24 204.911 37.12C203.471 36 201.658 35.44 199.471 35.44Z" fill="white"/>
<path d="M12 24C15.3137 24 18 21.3137 18 18C18 14.6863 15.3137 12 12 12C8.6863 12 6.00001 14.6863 6.00001 18C6.00001 21.3137 8.6863 24 12 24Z" fill="#FEC601"/>
<path d="M6.00001 6C6.00001 4.341 4.65601 3 3.00001 3C1.34401 3 7.62939e-06 4.341 7.62939e-06 6V9C7.62939e-06 10.659 1.34401 12 3.00001 12C4.65601 12 6.00001 10.659 6.00001 9V6Z" fill="#FEC601"/>
<path d="M12 9C13.656 9 15 7.659 15 6V3C15 1.341 13.656 0 12 0C10.344 0 9.00001 1.341 9.00001 3V6C9.00001 7.659 10.344 9 12 9Z" fill="#FEC601"/>
<path d="M21 3C19.344 3 18 4.341 18 6V9C18 10.659 19.344 12 21 12C22.656 12 24 10.659 24 9V6C24 4.341 22.656 3 21 3Z" fill="#FEC601"/>
</svg>
